<mxfile host="app.diagrams.net" modified="2023-10-22T08:07:50.318Z" agent="Mozilla/5.0 (Windows NT 10.0; Win64; x64) AppleWebKit/537.36 (KHTML, like Gecko) Chrome/118.0.0.0 Safari/537.36" etag="Vi4JZkxw3KtEjOEsZWBb" version="22.0.6" type="github">
  <diagram id="C5RBs43oDa-KdzZeNtuy" name="Page-1">
    <mxGraphModel dx="1518" dy="665" grid="1" gridSize="10" guides="1" tooltips="1" connect="1" arrows="1" fold="1" page="1" pageScale="1" pageWidth="827" pageHeight="1169" math="0" shadow="0">
      <root>
        <mxCell id="WIyWlLk6GJQsqaUBKTNV-0" />
        <mxCell id="WIyWlLk6GJQsqaUBKTNV-1" parent="WIyWlLk6GJQsqaUBKTNV-0" />
        <mxCell id="R21NLfSmPDXUTUfI8ZI1-1" value="เช็คสถานะหนังสือใน&lt;br&gt;เว็บไซต์" style="rounded=0;whiteSpace=wrap;html=1;" parent="WIyWlLk6GJQsqaUBKTNV-1" vertex="1">
          <mxGeometry x="10" y="20" width="130" height="60" as="geometry" />
        </mxCell>
        <mxCell id="R21NLfSmPDXUTUfI8ZI1-3" value="เข้าไปห้องสมุด" style="rounded=0;whiteSpace=wrap;html=1;" parent="WIyWlLk6GJQsqaUBKTNV-1" vertex="1">
          <mxGeometry x="211" y="120" width="130" height="60" as="geometry" />
        </mxCell>
        <mxCell id="R21NLfSmPDXUTUfI8ZI1-4" value="พบหนังสือในชั้นหนังสือ" style="rounded=0;whiteSpace=wrap;html=1;" parent="WIyWlLk6GJQsqaUBKTNV-1" vertex="1">
          <mxGeometry x="200" y="230" width="130" height="60" as="geometry" />
        </mxCell>
        <mxCell id="R21NLfSmPDXUTUfI8ZI1-6" value="ได้ทำการยืมสำเร็จ" style="rounded=0;whiteSpace=wrap;html=1;fillColor=#FAB5FF;" parent="WIyWlLk6GJQsqaUBKTNV-1" vertex="1">
          <mxGeometry x="620" y="230" width="130" height="60" as="geometry" />
        </mxCell>
        <mxCell id="R21NLfSmPDXUTUfI8ZI1-7" value="มีนักศึกษาท่านอื่นหยิบไปอ่านภายในห้องสมุด" style="rounded=0;whiteSpace=wrap;html=1;" parent="WIyWlLk6GJQsqaUBKTNV-1" vertex="1">
          <mxGeometry x="200" y="353" width="130" height="60" as="geometry" />
        </mxCell>
        <mxCell id="R21NLfSmPDXUTUfI8ZI1-11" value="" style="endArrow=classic;html=1;rounded=0;" parent="WIyWlLk6GJQsqaUBKTNV-1" edge="1">
          <mxGeometry width="50" height="50" relative="1" as="geometry">
            <mxPoint x="70" y="80" as="sourcePoint" />
            <mxPoint x="70" y="120" as="targetPoint" />
          </mxGeometry>
        </mxCell>
        <mxCell id="R21NLfSmPDXUTUfI8ZI1-13" value="" style="endArrow=classic;html=1;rounded=0;entryX=0;entryY=0.5;entryDx=0;entryDy=0;" parent="WIyWlLk6GJQsqaUBKTNV-1" edge="1">
          <mxGeometry width="50" height="50" relative="1" as="geometry">
            <mxPoint x="330" y="264.58000000000004" as="sourcePoint" />
            <mxPoint x="390" y="264.58000000000004" as="targetPoint" />
          </mxGeometry>
        </mxCell>
        <mxCell id="R21NLfSmPDXUTUfI8ZI1-14" value="" style="endArrow=classic;html=1;rounded=0;exitX=0.311;exitY=1.004;exitDx=0;exitDy=0;exitPerimeter=0;" parent="WIyWlLk6GJQsqaUBKTNV-1" edge="1" source="R21NLfSmPDXUTUfI8ZI1-4">
          <mxGeometry width="50" height="50" relative="1" as="geometry">
            <mxPoint x="240.85999999999996" y="295" as="sourcePoint" />
            <mxPoint x="241" y="355" as="targetPoint" />
          </mxGeometry>
        </mxCell>
        <mxCell id="R21NLfSmPDXUTUfI8ZI1-16" value="if yes" style="text;html=1;strokeColor=none;fillColor=none;align=center;verticalAlign=middle;whiteSpace=wrap;rounded=0;" parent="WIyWlLk6GJQsqaUBKTNV-1" vertex="1">
          <mxGeometry x="330" y="220" width="60" height="30" as="geometry" />
        </mxCell>
        <mxCell id="R21NLfSmPDXUTUfI8ZI1-17" value="if no" style="text;html=1;strokeColor=none;fillColor=none;align=center;verticalAlign=middle;whiteSpace=wrap;rounded=0;" parent="WIyWlLk6GJQsqaUBKTNV-1" vertex="1">
          <mxGeometry x="250" y="315" width="60" height="30" as="geometry" />
        </mxCell>
        <mxCell id="R21NLfSmPDXUTUfI8ZI1-18" value="หนังสือไม่ชำรุด" style="rounded=0;whiteSpace=wrap;html=1;" parent="WIyWlLk6GJQsqaUBKTNV-1" vertex="1">
          <mxGeometry x="390" y="230" width="130" height="60" as="geometry" />
        </mxCell>
        <mxCell id="R21NLfSmPDXUTUfI8ZI1-20" value="" style="endArrow=classic;html=1;rounded=0;entryX=0;entryY=0.5;entryDx=0;entryDy=0;" parent="WIyWlLk6GJQsqaUBKTNV-1" edge="1">
          <mxGeometry width="50" height="50" relative="1" as="geometry">
            <mxPoint x="520" y="265" as="sourcePoint" />
            <mxPoint x="620" y="265" as="targetPoint" />
          </mxGeometry>
        </mxCell>
        <mxCell id="R21NLfSmPDXUTUfI8ZI1-34" value="if yes" style="text;html=1;strokeColor=none;fillColor=none;align=center;verticalAlign=middle;whiteSpace=wrap;rounded=0;" parent="WIyWlLk6GJQsqaUBKTNV-1" vertex="1">
          <mxGeometry x="540" y="220" width="60" height="30" as="geometry" />
        </mxCell>
        <mxCell id="R21NLfSmPDXUTUfI8ZI1-41" value="แจ้งเจ้าหน้าที่แล้วทำการยกเลิกการจอง" style="rounded=0;whiteSpace=wrap;html=1;" parent="WIyWlLk6GJQsqaUBKTNV-1" vertex="1">
          <mxGeometry x="390" y="370" width="130" height="60" as="geometry" />
        </mxCell>
        <mxCell id="R21NLfSmPDXUTUfI8ZI1-45" value="" style="endArrow=classic;html=1;rounded=0;exitX=0.462;exitY=1;exitDx=0;exitDy=0;exitPerimeter=0;" parent="WIyWlLk6GJQsqaUBKTNV-1" edge="1" source="R21NLfSmPDXUTUfI8ZI1-18">
          <mxGeometry width="50" height="50" relative="1" as="geometry">
            <mxPoint x="450" y="295" as="sourcePoint" />
            <mxPoint x="450" y="370" as="targetPoint" />
          </mxGeometry>
        </mxCell>
        <mxCell id="R21NLfSmPDXUTUfI8ZI1-46" value="if no" style="text;html=1;strokeColor=none;fillColor=none;align=center;verticalAlign=middle;whiteSpace=wrap;rounded=0;" parent="WIyWlLk6GJQsqaUBKTNV-1" vertex="1">
          <mxGeometry x="450" y="323" width="60" height="30" as="geometry" />
        </mxCell>
        <mxCell id="R21NLfSmPDXUTUfI8ZI1-47" value="ทำการยืมหนังสือล่วงหน้า" style="rounded=0;whiteSpace=wrap;html=1;" parent="WIyWlLk6GJQsqaUBKTNV-1" vertex="1">
          <mxGeometry x="200" y="454" width="130" height="60" as="geometry" />
        </mxCell>
        <mxCell id="R21NLfSmPDXUTUfI8ZI1-48" value="" style="endArrow=classic;html=1;rounded=0;exitX=0.082;exitY=0.963;exitDx=0;exitDy=0;exitPerimeter=0;entryX=0.396;entryY=-0.044;entryDx=0;entryDy=0;entryPerimeter=0;" parent="WIyWlLk6GJQsqaUBKTNV-1" edge="1">
          <mxGeometry width="50" height="50" relative="1" as="geometry">
            <mxPoint x="250.85999999999996" y="416" as="sourcePoint" />
            <mxPoint x="251.48000000000002" y="453.3599999999999" as="targetPoint" />
          </mxGeometry>
        </mxCell>
        <mxCell id="R21NLfSmPDXUTUfI8ZI1-49" value="if yes" style="text;html=1;strokeColor=none;fillColor=none;align=center;verticalAlign=middle;whiteSpace=wrap;rounded=0;" parent="WIyWlLk6GJQsqaUBKTNV-1" vertex="1">
          <mxGeometry x="250" y="416" width="60" height="30" as="geometry" />
        </mxCell>
        <mxCell id="R21NLfSmPDXUTUfI8ZI1-50" value="หาหนังสือเล่มอื่นที่สนใจอ่าน" style="rounded=0;whiteSpace=wrap;html=1;fillColor=#FAB5FF;" parent="WIyWlLk6GJQsqaUBKTNV-1" vertex="1">
          <mxGeometry x="10" y="439" width="130" height="60" as="geometry" />
        </mxCell>
        <mxCell id="R21NLfSmPDXUTUfI8ZI1-51" value="" style="endArrow=classic;html=1;rounded=0;exitX=0;exitY=0.5;exitDx=0;exitDy=0;entryX=1;entryY=0.5;entryDx=0;entryDy=0;" parent="WIyWlLk6GJQsqaUBKTNV-1" source="R21NLfSmPDXUTUfI8ZI1-47" edge="1">
          <mxGeometry width="50" height="50" relative="1" as="geometry">
            <mxPoint x="140" y="484" as="sourcePoint" />
            <mxPoint x="140" y="484" as="targetPoint" />
          </mxGeometry>
        </mxCell>
        <mxCell id="R21NLfSmPDXUTUfI8ZI1-52" value="if no" style="text;html=1;strokeColor=none;fillColor=none;align=center;verticalAlign=middle;whiteSpace=wrap;rounded=0;" parent="WIyWlLk6GJQsqaUBKTNV-1" vertex="1">
          <mxGeometry x="140" y="454" width="60" height="30" as="geometry" />
        </mxCell>
        <mxCell id="R21NLfSmPDXUTUfI8ZI1-53" value="ออกจากห้องสมุดแล้วกลับมาใหม่ช่วงห้องสมุดใกล้ปิดทำการ" style="rounded=0;whiteSpace=wrap;html=1;" parent="WIyWlLk6GJQsqaUBKTNV-1" vertex="1">
          <mxGeometry x="200" y="564" width="130" height="60" as="geometry" />
        </mxCell>
        <mxCell id="R21NLfSmPDXUTUfI8ZI1-54" value="" style="endArrow=classic;html=1;rounded=0;entryX=0.451;entryY=-0.001;entryDx=0;entryDy=0;entryPerimeter=0;exitX=0.453;exitY=1.019;exitDx=0;exitDy=0;exitPerimeter=0;" parent="WIyWlLk6GJQsqaUBKTNV-1" edge="1">
          <mxGeometry width="50" height="50" relative="1" as="geometry">
            <mxPoint x="258.8899999999999" y="517.1399999999999" as="sourcePoint" />
            <mxPoint x="258.6299999999999" y="565.94" as="targetPoint" />
          </mxGeometry>
        </mxCell>
        <mxCell id="R21NLfSmPDXUTUfI8ZI1-56" value="if yes" style="text;html=1;strokeColor=none;fillColor=none;align=center;verticalAlign=middle;whiteSpace=wrap;rounded=0;" parent="WIyWlLk6GJQsqaUBKTNV-1" vertex="1">
          <mxGeometry x="260" y="526" width="60" height="30" as="geometry" />
        </mxCell>
        <mxCell id="R21NLfSmPDXUTUfI8ZI1-58" value="" style="endArrow=none;html=1;rounded=0;" parent="WIyWlLk6GJQsqaUBKTNV-1" edge="1">
          <mxGeometry width="50" height="50" relative="1" as="geometry">
            <mxPoint x="330" y="596" as="sourcePoint" />
            <mxPoint x="580" y="596" as="targetPoint" />
          </mxGeometry>
        </mxCell>
        <mxCell id="R21NLfSmPDXUTUfI8ZI1-59" value="" style="endArrow=classic;html=1;rounded=0;entryX=0.998;entryY=0.809;entryDx=0;entryDy=0;entryPerimeter=0;" parent="WIyWlLk6GJQsqaUBKTNV-1" edge="1">
          <mxGeometry width="50" height="50" relative="1" as="geometry">
            <mxPoint x="580" y="280" as="sourcePoint" />
            <mxPoint x="519.74" y="280.5400000000001" as="targetPoint" />
          </mxGeometry>
        </mxCell>
        <mxCell id="R21NLfSmPDXUTUfI8ZI1-60" value="" style="endArrow=none;html=1;rounded=0;" parent="WIyWlLk6GJQsqaUBKTNV-1" edge="1">
          <mxGeometry width="50" height="50" relative="1" as="geometry">
            <mxPoint x="580" y="597" as="sourcePoint" />
            <mxPoint x="580" y="280" as="targetPoint" />
          </mxGeometry>
        </mxCell>
        <mxCell id="DkYj70Plk6uaG3JZy0Jq-1" value="ได้ทำการยืมหนังสือในเว็บไซต์ก่อนที่จะมา&lt;br&gt;มหาลัย" style="rounded=0;whiteSpace=wrap;html=1;fillColor=#FAB5FF;" vertex="1" parent="WIyWlLk6GJQsqaUBKTNV-1">
          <mxGeometry x="10" y="120" width="130" height="60" as="geometry" />
        </mxCell>
        <mxCell id="DkYj70Plk6uaG3JZy0Jq-2" value="" style="endArrow=classic;html=1;rounded=0;" edge="1" parent="WIyWlLk6GJQsqaUBKTNV-1">
          <mxGeometry width="50" height="50" relative="1" as="geometry">
            <mxPoint x="140" y="150" as="sourcePoint" />
            <mxPoint x="210" y="150" as="targetPoint" />
          </mxGeometry>
        </mxCell>
        <mxCell id="DkYj70Plk6uaG3JZy0Jq-6" value="" style="endArrow=none;html=1;rounded=0;" edge="1" parent="WIyWlLk6GJQsqaUBKTNV-1">
          <mxGeometry width="50" height="50" relative="1" as="geometry">
            <mxPoint x="20" y="389" as="sourcePoint" />
            <mxPoint x="200" y="389" as="targetPoint" />
          </mxGeometry>
        </mxCell>
        <mxCell id="DkYj70Plk6uaG3JZy0Jq-8" value="เข้าไปห้องสมุด" style="rounded=0;whiteSpace=wrap;html=1;" vertex="1" parent="WIyWlLk6GJQsqaUBKTNV-1">
          <mxGeometry x="50" y="230" width="100" height="60" as="geometry" />
        </mxCell>
        <mxCell id="DkYj70Plk6uaG3JZy0Jq-9" value="if yes" style="text;html=1;strokeColor=none;fillColor=none;align=center;verticalAlign=middle;whiteSpace=wrap;rounded=0;" vertex="1" parent="WIyWlLk6GJQsqaUBKTNV-1">
          <mxGeometry x="150" y="120" width="60" height="30" as="geometry" />
        </mxCell>
        <mxCell id="DkYj70Plk6uaG3JZy0Jq-10" value="if no" style="text;html=1;strokeColor=none;fillColor=none;align=center;verticalAlign=middle;whiteSpace=wrap;rounded=0;" vertex="1" parent="WIyWlLk6GJQsqaUBKTNV-1">
          <mxGeometry x="80" y="188" width="60" height="30" as="geometry" />
        </mxCell>
        <mxCell id="DkYj70Plk6uaG3JZy0Jq-11" value="" style="endArrow=classic;html=1;rounded=0;entryX=0.38;entryY=-0.005;entryDx=0;entryDy=0;entryPerimeter=0;exitX=0.607;exitY=1.008;exitDx=0;exitDy=0;exitPerimeter=0;" edge="1" parent="WIyWlLk6GJQsqaUBKTNV-1" source="DkYj70Plk6uaG3JZy0Jq-1" target="DkYj70Plk6uaG3JZy0Jq-8">
          <mxGeometry width="50" height="50" relative="1" as="geometry">
            <mxPoint x="90" y="180" as="sourcePoint" />
            <mxPoint x="120" y="130" as="targetPoint" />
          </mxGeometry>
        </mxCell>
        <mxCell id="DkYj70Plk6uaG3JZy0Jq-12" value="" style="endArrow=classic;html=1;rounded=0;entryX=0;entryY=0.5;entryDx=0;entryDy=0;" edge="1" parent="WIyWlLk6GJQsqaUBKTNV-1">
          <mxGeometry width="50" height="50" relative="1" as="geometry">
            <mxPoint x="150" y="262.18" as="sourcePoint" />
            <mxPoint x="200" y="263" as="targetPoint" />
          </mxGeometry>
        </mxCell>
        <mxCell id="DkYj70Plk6uaG3JZy0Jq-15" value="" style="endArrow=classic;html=1;rounded=0;entryX=0.076;entryY=1.063;entryDx=0;entryDy=0;entryPerimeter=0;" edge="1" parent="WIyWlLk6GJQsqaUBKTNV-1" target="DkYj70Plk6uaG3JZy0Jq-1">
          <mxGeometry width="50" height="50" relative="1" as="geometry">
            <mxPoint x="20" y="390" as="sourcePoint" />
            <mxPoint x="20" y="190" as="targetPoint" />
          </mxGeometry>
        </mxCell>
        <mxCell id="DkYj70Plk6uaG3JZy0Jq-16" value="พบหนังสือในชั้นหนังสือ" style="rounded=0;whiteSpace=wrap;html=1;" vertex="1" parent="WIyWlLk6GJQsqaUBKTNV-1">
          <mxGeometry x="390" y="120" width="130" height="60" as="geometry" />
        </mxCell>
        <mxCell id="DkYj70Plk6uaG3JZy0Jq-17" value="" style="endArrow=classic;html=1;rounded=0;entryX=0;entryY=0.5;entryDx=0;entryDy=0;" edge="1" parent="WIyWlLk6GJQsqaUBKTNV-1" target="DkYj70Plk6uaG3JZy0Jq-16">
          <mxGeometry width="50" height="50" relative="1" as="geometry">
            <mxPoint x="340" y="150" as="sourcePoint" />
            <mxPoint x="390" y="100" as="targetPoint" />
          </mxGeometry>
        </mxCell>
        <mxCell id="DkYj70Plk6uaG3JZy0Jq-19" value="" style="endArrow=classic;html=1;rounded=0;entryX=0.462;entryY=0;entryDx=0;entryDy=0;entryPerimeter=0;" edge="1" parent="WIyWlLk6GJQsqaUBKTNV-1" target="R21NLfSmPDXUTUfI8ZI1-18">
          <mxGeometry width="50" height="50" relative="1" as="geometry">
            <mxPoint x="450" y="180" as="sourcePoint" />
            <mxPoint x="500" y="130" as="targetPoint" />
          </mxGeometry>
        </mxCell>
      </root>
    </mxGraphModel>
  </diagram>
</mxfile>
